<?xml version="1.0" encoding="UTF-8" standalone="no"?>
<!DOCTYPE svg PUBLIC "-//W3C//DTD SVG 1.1//EN"
 "http://www.w3.org/Graphics/SVG/1.1/DTD/svg11.dtd">
<!-- Generated by graphviz version 2.43.0 (0)
 -->
<!-- Title: ESG_Data_Mart_ERD Pages: 1 -->
<svg width="642pt" height="781pt"
 viewBox="0.00 0.00 641.60 781.10" xmlns="http://www.w3.org/2000/svg" xmlns:xlink="http://www.w3.org/1999/xlink">
<g id="graph0" class="graph" transform="scale(1 1) rotate(0) translate(28.8 752.3)">
<title>ESG_Data_Mart_ERD</title>
<polygon fill="white" stroke="transparent" points="-28.8,28.8 -28.8,-752.3 612.8,-752.3 612.8,28.8 -28.8,28.8"/>
<text text-anchor="middle" x="292" y="-705.1" font-family="Helvetica,sans-Serif" font-size="18.00">ESG Data Mart — Star Schema (Fact Constellation)</text>
<text text-anchor="middle" x="292" y="-685.1" font-family="Helvetica,sans-Serif" font-size="18.00">Muhammad Zidane Alhalita</text>
<!-- dim_perusahaan -->
<g id="node1" class="node">
<title>dim_perusahaan</title>
<polygon fill="#5b8db8" stroke="transparent" points="15,-477.5 15,-513.5 233,-513.5 233,-477.5 15,-477.5"/>
<text text-anchor="start" x="59.5" y="-497.3" font-family="Helvetica,sans-Serif" font-weight="bold" font-size="14.00" fill="white">dim_perusahaan</text>
<text text-anchor="start" x="51.5" y="-486.5" font-family="Helvetica,sans-Serif" font-style="italic" font-size="10.00">Sumber: dim_perusahaan.csv</text>
<text text-anchor="start" x="19" y="-463.3" font-family="Helvetica,sans-Serif" font-weight="bold" font-size="14.00" fill="#b23a48">PK</text>
<text text-anchor="start" x="41" y="-463.3" font-family="Helvetica,sans-Serif" font-size="14.00"> company_id</text>
<text text-anchor="start" x="167" y="-462.3" font-family="Helvetica,sans-Serif" font-size="14.00" fill="#666666">TEXT</text>
<text text-anchor="start" x="19" y="-439.3" font-family="Helvetica,sans-Serif" font-size="14.00">nama_perusahaan</text>
<text text-anchor="start" x="167" y="-439.3" font-family="Helvetica,sans-Serif" font-size="14.00" fill="#666666">TEXT</text>
<text text-anchor="start" x="19" y="-416.3" font-family="Helvetica,sans-Serif" font-size="14.00">sektor</text>
<text text-anchor="start" x="167" y="-416.3" font-family="Helvetica,sans-Serif" font-size="14.00" fill="#666666">TEXT</text>
<text text-anchor="start" x="19" y="-393.3" font-family="Helvetica,sans-Serif" font-size="14.00">wilayah_operasional</text>
<text text-anchor="start" x="167" y="-393.3" font-family="Helvetica,sans-Serif" font-size="14.00" fill="#666666">TEXT</text>
<text text-anchor="start" x="19" y="-370.3" font-family="Helvetica,sans-Serif" font-size="14.00">tahun_listing</text>
<text text-anchor="start" x="167" y="-370.3" font-family="Helvetica,sans-Serif" font-size="14.00" fill="#666666">INTEGER</text>
<polygon fill="none" stroke="#cccccc" points="14,-362 14,-515 234,-515 234,-362 14,-362"/>
</g>
<!-- fact_penilaian_tahunan -->
<g id="node5" class="node">
<title>fact_penilaian_tahunan</title>
<polygon fill="#f4a259" stroke="transparent" points="320.5,-625.5 320.5,-661.5 571.5,-661.5 571.5,-625.5 320.5,-625.5"/>
<text text-anchor="start" x="355" y="-645.3" font-family="Helvetica,sans-Serif" font-weight="bold" font-size="14.00" fill="white">fact_penilaian_tahunan</text>
<text text-anchor="start" x="326.5" y="-634.5" font-family="Helvetica,sans-Serif" font-style="italic" font-size="10.00">Grain: 1 baris = 1 perusahaan x 1 tahun evaluasi</text>
<text text-anchor="start" x="324.5" y="-611.3" font-family="Helvetica,sans-Serif" font-weight="bold" font-size="14.00" fill="#b23a48">PK</text>
<text text-anchor="start" x="346.5" y="-611.3" font-family="Helvetica,sans-Serif" font-size="14.00"> fact_score_id</text>
<text text-anchor="start" x="486.5" y="-610.3" font-family="Helvetica,sans-Serif" font-size="14.00" fill="#666666">TEXT</text>
<text text-anchor="start" x="324.5" y="-588.3" font-family="Helvetica,sans-Serif" font-weight="bold" font-size="14.00" fill="#3a6ea5">FK</text>
<text text-anchor="start" x="345.5" y="-588.3" font-family="Helvetica,sans-Serif" font-size="14.00"> company_id</text>
<text text-anchor="start" x="486.5" y="-587.3" font-family="Helvetica,sans-Serif" font-size="14.00" fill="#666666">TEXT</text>
<text text-anchor="start" x="324.5" y="-564.3" font-family="Helvetica,sans-Serif" font-size="14.00">tahun_evaluasi</text>
<text text-anchor="start" x="486.5" y="-564.3" font-family="Helvetica,sans-Serif" font-size="14.00" fill="#666666">INTEGER</text>
<text text-anchor="start" x="324.5" y="-541.3" font-family="Helvetica,sans-Serif" font-size="14.00">skor_environmental</text>
<text text-anchor="start" x="486.5" y="-541.3" font-family="Helvetica,sans-Serif" font-size="14.00" fill="#666666">INTEGER</text>
<text text-anchor="start" x="324.5" y="-518.3" font-family="Helvetica,sans-Serif" font-size="14.00">skor_social</text>
<text text-anchor="start" x="486.5" y="-518.3" font-family="Helvetica,sans-Serif" font-size="14.00" fill="#666666">INTEGER</text>
<text text-anchor="start" x="324.5" y="-495.3" font-family="Helvetica,sans-Serif" font-size="14.00">skor_governance</text>
<text text-anchor="start" x="486.5" y="-495.3" font-family="Helvetica,sans-Serif" font-size="14.00" fill="#666666">INTEGER</text>
<text text-anchor="start" x="324.5" y="-472.3" font-family="Helvetica,sans-Serif" font-size="14.00">total_skor_esg</text>
<text text-anchor="start" x="486.5" y="-472.3" font-family="Helvetica,sans-Serif" font-size="14.00" fill="#666666">REAL</text>
<text text-anchor="start" x="324.5" y="-450.3" font-family="Helvetica,sans-Serif" font-weight="bold" font-size="14.00" fill="#3a6ea5">FK</text>
<text text-anchor="start" x="345.5" y="-450.3" font-family="Helvetica,sans-Serif" font-size="14.00"> peringkat_esg</text>
<text text-anchor="start" x="486.5" y="-449.3" font-family="Helvetica,sans-Serif" font-size="14.00" fill="#666666">TEXT</text>
<polygon fill="none" stroke="#cccccc" points="319,-440.5 319,-662.5 572,-662.5 572,-440.5 319,-440.5"/>
</g>
<!-- dim_perusahaan&#45;&gt;fact_penilaian_tahunan -->
<g id="edge1" class="edge">
<title>dim_perusahaan&#45;&gt;fact_penilaian_tahunan</title>
<path fill="none" stroke="#5b6b73" d="M251.65,-483.29C271.12,-490.18 291.27,-497.3 310.88,-504.24"/>
<polygon fill="#5b6b73" stroke="#5b6b73" points="251.58,-483.27 243.66,-475.69 246.87,-481.6 242.16,-479.94 242.16,-479.94 242.16,-479.94 246.87,-481.6 240.66,-484.18 251.58,-483.27 251.58,-483.27"/>
<text text-anchor="middle" x="277.5" y="-497.5" font-family="Helvetica,sans-Serif" font-size="10.00">1 : N</text>
</g>
<!-- fact_catatan_aktivitas -->
<g id="node6" class="node">
<title>fact_catatan_aktivitas</title>
<polygon fill="#f4a259" stroke="transparent" points="316.5,-321.5 316.5,-357.5 575.5,-357.5 575.5,-321.5 316.5,-321.5"/>
<text text-anchor="start" x="359" y="-341.3" font-family="Helvetica,sans-Serif" font-weight="bold" font-size="14.00" fill="white">fact_catatan_aktivitas</text>
<text text-anchor="start" x="322.5" y="-330.5" font-family="Helvetica,sans-Serif" font-style="italic" font-size="10.00">Grain: 1 baris = 1 metrik x 1 perusahaan x 1 bulan</text>
<text text-anchor="start" x="320.5" y="-307.3" font-family="Helvetica,sans-Serif" font-weight="bold" font-size="14.00" fill="#b23a48">PK</text>
<text text-anchor="start" x="342.5" y="-307.3" font-family="Helvetica,sans-Serif" font-size="14.00"> fact_activity_id</text>
<text text-anchor="start" x="483.5" y="-306.3" font-family="Helvetica,sans-Serif" font-size="14.00" fill="#666666">TEXT</text>
<text text-anchor="start" x="320.5" y="-284.3" font-family="Helvetica,sans-Serif" font-weight="bold" font-size="14.00" fill="#3a6ea5">FK</text>
<text text-anchor="start" x="341.5" y="-284.3" font-family="Helvetica,sans-Serif" font-size="14.00"> company_id</text>
<text text-anchor="start" x="483.5" y="-283.3" font-family="Helvetica,sans-Serif" font-size="14.00" fill="#666666">TEXT</text>
<text text-anchor="start" x="320.5" y="-261.3" font-family="Helvetica,sans-Serif" font-weight="bold" font-size="14.00" fill="#3a6ea5">FK</text>
<text text-anchor="start" x="341.5" y="-261.3" font-family="Helvetica,sans-Serif" font-size="14.00"> metric_id</text>
<text text-anchor="start" x="483.5" y="-260.3" font-family="Helvetica,sans-Serif" font-size="14.00" fill="#666666">TEXT</text>
<text text-anchor="start" x="320.5" y="-238.3" font-family="Helvetica,sans-Serif" font-weight="bold" font-size="14.00" fill="#3a6ea5">FK</text>
<text text-anchor="start" x="341.5" y="-238.3" font-family="Helvetica,sans-Serif" font-size="14.00"> bulan</text>
<text text-anchor="start" x="483.5" y="-237.3" font-family="Helvetica,sans-Serif" font-size="14.00" fill="#666666">INTEGER</text>
<text text-anchor="start" x="320.5" y="-214.3" font-family="Helvetica,sans-Serif" font-size="14.00">nilai_realisasi</text>
<text text-anchor="start" x="483.5" y="-214.3" font-family="Helvetica,sans-Serif" font-size="14.00" fill="#666666">REAL</text>
<text text-anchor="start" x="320.5" y="-191.3" font-family="Helvetica,sans-Serif" font-size="14.00">status_kepatuhan</text>
<text text-anchor="start" x="483.5" y="-191.3" font-family="Helvetica,sans-Serif" font-size="14.00" fill="#666666">TEXT</text>
<text text-anchor="start" x="320.5" y="-168.3" font-family="Helvetica,sans-Serif" font-size="14.00">biaya_mitigasi_idr</text>
<text text-anchor="start" x="483.5" y="-168.3" font-family="Helvetica,sans-Serif" font-size="14.00" fill="#666666">INTEGER</text>
<polygon fill="none" stroke="#cccccc" points="315,-160 315,-359 576,-359 576,-160 315,-160"/>
</g>
<!-- dim_perusahaan&#45;&gt;fact_catatan_aktivitas -->
<g id="edge3" class="edge">
<title>dim_perusahaan&#45;&gt;fact_catatan_aktivitas</title>
<path fill="none" stroke="#5b6b73" d="M251.08,-367.86C269.37,-357.62 288.28,-347.02 306.78,-336.66"/>
<polygon fill="#5b6b73" stroke="#5b6b73" points="250.88,-367.98 239.96,-368.94 246.52,-370.42 242.16,-372.86 242.16,-372.86 242.16,-372.86 246.52,-370.42 244.36,-376.79 250.88,-367.98 250.88,-367.98"/>
<text text-anchor="middle" x="277.5" y="-356.5" font-family="Helvetica,sans-Serif" font-size="10.00">1 : N</text>
</g>
<!-- dim_metrik_esg -->
<g id="node2" class="node">
<title>dim_metrik_esg</title>
<polygon fill="#5b8db8" stroke="transparent" points="9,-298.5 9,-334.5 239,-334.5 239,-298.5 9,-298.5"/>
<text text-anchor="start" x="63.5" y="-318.3" font-family="Helvetica,sans-Serif" font-weight="bold" font-size="14.00" fill="white">dim_metrik_esg</text>
<text text-anchor="start" x="53" y="-307.5" font-family="Helvetica,sans-Serif" font-style="italic" font-size="10.00">Sumber: dim_metrik_esg.csv</text>
<text text-anchor="start" x="13" y="-284.3" font-family="Helvetica,sans-Serif" font-weight="bold" font-size="14.00" fill="#b23a48">PK</text>
<text text-anchor="start" x="35" y="-284.3" font-family="Helvetica,sans-Serif" font-size="14.00"> metric_id</text>
<text text-anchor="start" x="198" y="-283.3" font-family="Helvetica,sans-Serif" font-size="14.00" fill="#666666">TEXT</text>
<text text-anchor="start" x="13" y="-260.3" font-family="Helvetica,sans-Serif" font-size="14.00">pilar</text>
<text text-anchor="start" x="198" y="-260.3" font-family="Helvetica,sans-Serif" font-size="14.00" fill="#666666">TEXT</text>
<text text-anchor="start" x="13" y="-237.3" font-family="Helvetica,sans-Serif" font-size="14.00">nama_metrik</text>
<text text-anchor="start" x="198" y="-237.3" font-family="Helvetica,sans-Serif" font-size="14.00" fill="#666666">TEXT</text>
<text text-anchor="start" x="13" y="-214.3" font-family="Helvetica,sans-Serif" font-size="14.00">satuan</text>
<text text-anchor="start" x="198" y="-214.3" font-family="Helvetica,sans-Serif" font-size="14.00" fill="#666666">TEXT</text>
<text text-anchor="start" x="13" y="-191.3" font-family="Helvetica,sans-Serif" font-size="14.00">target_kepatuhan_persen</text>
<text text-anchor="start" x="198" y="-191.3" font-family="Helvetica,sans-Serif" font-size="14.00" fill="#666666">REAL</text>
<polygon fill="none" stroke="#cccccc" points="8,-183 8,-336 240,-336 240,-183 8,-183"/>
</g>
<!-- dim_metrik_esg&#45;&gt;fact_catatan_aktivitas -->
<g id="edge4" class="edge">
<title>dim_metrik_esg&#45;&gt;fact_catatan_aktivitas</title>
<path fill="none" stroke="#5b6b73" d="M258.51,-259.5C274.49,-259.5 290.83,-259.5 306.87,-259.5"/>
<polygon fill="#5b6b73" stroke="#5b6b73" points="258.07,-259.5 248.07,-255 253.07,-259.5 248.07,-259.5 248.07,-259.5 248.07,-259.5 253.07,-259.5 248.07,-264 258.07,-259.5 258.07,-259.5"/>
<text text-anchor="middle" x="277.5" y="-262.5" font-family="Helvetica,sans-Serif" font-size="10.00">1 : N</text>
</g>
<!-- dim_waktu_bulan -->
<g id="node3" class="node">
<title>dim_waktu_bulan</title>
<polygon fill="#8aa399" stroke="transparent" points="14,-119.5 14,-155.5 234,-155.5 234,-119.5 14,-119.5"/>
<text text-anchor="start" x="57" y="-139.3" font-family="Helvetica,sans-Serif" font-weight="bold" font-size="14.00" fill="white">dim_waktu_bulan</text>
<text text-anchor="start" x="33.5" y="-128.5" font-family="Helvetica,sans-Serif" font-style="italic" font-size="10.00">Dimensi turunan (dibangun oleh ETL)</text>
<text text-anchor="start" x="18" y="-105.3" font-family="Helvetica,sans-Serif" font-weight="bold" font-size="14.00" fill="#b23a48">PK</text>
<text text-anchor="start" x="40" y="-105.3" font-family="Helvetica,sans-Serif" font-size="14.00"> bulan</text>
<text text-anchor="start" x="168" y="-104.3" font-family="Helvetica,sans-Serif" font-size="14.00" fill="#666666">INTEGER</text>
<text text-anchor="start" x="18" y="-81.3" font-family="Helvetica,sans-Serif" font-size="14.00">nama_bulan</text>
<text text-anchor="start" x="168" y="-81.3" font-family="Helvetica,sans-Serif" font-size="14.00" fill="#666666">TEXT</text>
<text text-anchor="start" x="18" y="-58.3" font-family="Helvetica,sans-Serif" font-size="14.00">nama_bulan_singkat</text>
<text text-anchor="start" x="168" y="-58.3" font-family="Helvetica,sans-Serif" font-size="14.00" fill="#666666">TEXT</text>
<text text-anchor="start" x="18" y="-35.3" font-family="Helvetica,sans-Serif" font-size="14.00">kuartal</text>
<text text-anchor="start" x="168" y="-35.3" font-family="Helvetica,sans-Serif" font-size="14.00" fill="#666666">TEXT</text>
<text text-anchor="start" x="18" y="-12.3" font-family="Helvetica,sans-Serif" font-size="14.00">semester</text>
<text text-anchor="start" x="168" y="-12.3" font-family="Helvetica,sans-Serif" font-size="14.00" fill="#666666">TEXT</text>
<polygon fill="none" stroke="#cccccc" points="13,-4 13,-157 235,-157 235,-4 13,-4"/>
</g>
<!-- dim_waktu_bulan&#45;&gt;fact_catatan_aktivitas -->
<g id="edge5" class="edge">
<title>dim_waktu_bulan&#45;&gt;fact_catatan_aktivitas</title>
<path fill="none" stroke="#5b6b73" d="M251.89,-151.59C269.98,-161.73 288.66,-172.19 306.95,-182.44"/>
<polygon fill="#5b6b73" stroke="#5b6b73" points="251.79,-151.53 245.26,-142.72 247.42,-149.09 243.06,-146.64 243.06,-146.64 243.06,-146.64 247.42,-149.09 240.86,-150.57 251.79,-151.53 251.79,-151.53"/>
<text text-anchor="middle" x="277.5" y="-172.5" font-family="Helvetica,sans-Serif" font-size="10.00">1 : N</text>
</g>
<!-- dim_peringkat_esg -->
<g id="node4" class="node">
<title>dim_peringkat_esg</title>
<polygon fill="#8aa399" stroke="transparent" points="23,-634.5 23,-670.5 226,-670.5 226,-634.5 23,-634.5"/>
<text text-anchor="start" x="51.5" y="-654.3" font-family="Helvetica,sans-Serif" font-weight="bold" font-size="14.00" fill="white">dim_peringkat_esg</text>
<text text-anchor="start" x="34" y="-643.5" font-family="Helvetica,sans-Serif" font-style="italic" font-size="10.00">Dimensi turunan (dibangun oleh ETL)</text>
<text text-anchor="start" x="27" y="-620.3" font-family="Helvetica,sans-Serif" font-weight="bold" font-size="14.00" fill="#b23a48">PK</text>
<text text-anchor="start" x="49" y="-620.3" font-family="Helvetica,sans-Serif" font-size="14.00"> peringkat_esg</text>
<text text-anchor="start" x="160" y="-619.3" font-family="Helvetica,sans-Serif" font-size="14.00" fill="#666666">TEXT</text>
<text text-anchor="start" x="27" y="-596.3" font-family="Helvetica,sans-Serif" font-size="14.00">urutan_peringkat</text>
<text text-anchor="start" x="160" y="-596.3" font-family="Helvetica,sans-Serif" font-size="14.00" fill="#666666">INTEGER</text>
<text text-anchor="start" x="27" y="-573.3" font-family="Helvetica,sans-Serif" font-size="14.00">kategori_risiko</text>
<text text-anchor="start" x="160" y="-573.3" font-family="Helvetica,sans-Serif" font-size="14.00" fill="#666666">TEXT</text>
<text text-anchor="start" x="27" y="-550.3" font-family="Helvetica,sans-Serif" font-size="14.00">deskripsi</text>
<text text-anchor="start" x="160" y="-550.3" font-family="Helvetica,sans-Serif" font-size="14.00" fill="#666666">TEXT</text>
<polygon fill="none" stroke="#cccccc" points="21.5,-541.5 21.5,-671.5 226.5,-671.5 226.5,-541.5 21.5,-541.5"/>
</g>
<!-- dim_peringkat_esg&#45;&gt;fact_penilaian_tahunan -->
<g id="edge2" class="edge">
<title>dim_peringkat_esg&#45;&gt;fact_penilaian_tahunan</title>
<path fill="none" stroke="#5b6b73" d="M244.38,-585.95C266.05,-582.22 288.78,-578.31 310.83,-574.51"/>
<polygon fill="#5b6b73" stroke="#5b6b73" points="244.36,-585.95 233.74,-583.21 239.43,-586.8 234.51,-587.65 234.51,-587.65 234.51,-587.65 239.43,-586.8 235.27,-592.08 244.36,-585.95 244.36,-585.95"/>
<text text-anchor="middle" x="277.5" y="-583.5" font-family="Helvetica,sans-Serif" font-size="10.00">1 : N</text>
</g>
</g>
</svg>
